{"title":"Bure.Baruta.aka.Cabaret.Balkan.aka.1998.DVDRip.XviD[SRB]-NWO","uid":5812882,"size":730744683,"categoryP":"video","categoryS":"movies","magnet":"?xt=urn:btih:16c78d71e426cfcd37dc8ed330358693c29cbbc0&amp;dn=Bure.Baruta.aka.Cabaret.Balkan.aka.1998.DVDRip.XviD%5BSRB%5D-NWO&amp;tr=udp%3A%2F%2Ftracker.openbittorrent.com%3A80&amp;tr=udp%3A%2F%2Fopen.demonii.com%3A1337&amp;tr=udp%3A%2F%2Ftracker.coppersurfer.tk%3A6969&amp;tr=udp%3A%2F%2Fexodus.desync.com%3A6969","seeders":6,"leechers":0,"uploader":"TerraWatt","files":3,"time":1283721384,"description":"Format                           : AVI\nFormat/Info                      : Audio Video Interleave\nFile size                        : 697 MiB\nDuration                         : 1h 37mn\nOverall bit rate                 : 995 Kbps\nWriting application              : VirtualDubMod 1.5.10.2 (build 2540/release)\nWriting library                  : VirtualDubMod build 2540/release\n\nVideo\nID                               : 0\nFormat                           : MPEG-4 Visual\nFormat profile                   : Advanced Simple@L5\nFormat settings, BVOP            : Yes\nFormat settings, QPel            : No\nFormat settings, GMC             : No warppoints\nFormat settings, Matrix          : Default (H.263)\nCodec ID                         : DIVX\nCodec ID/Info                    : Project Mayo\nCodec ID/Hint                    : DivX 4\nDuration                         : 1h 37mn\nBit rate                         : 874 Kbps\nWidth                            : 664 pixels\nHeight                           : 392 pixels\nDisplay aspect ratio             : 1.694\nFrame rate                       : 25.000 fps\nResolution                       : 8 bits\nColorimetry                      : 4:2:0\nScan type                        : Progressive\nBits/(Pixel*Frame)               : 0.134\nStream size                      : 612 MiB (88%)\nWriting library                  : XviD 1.2.1 (UTC 2008-12-04)\n\nAudio\nID                               : 1\nFormat                           : MPEG Audio\nFormat version                   : Version 1\nFormat profile                   : Layer 3\nFormat_Settings_Mode             : Joint stereo\nCodec ID                         : 55\nCodec ID/Hint                    : MP3\nDuration                         : 1h 37mn\nBit rate mode                    : Variable\nBit rate                         : 108 Kbps\nNominal bit rate                 : 112 Kbps\nChannel(s)                       : 2 channels\nSampling rate                    : 44.1 KHz\nStream size                      : 75.9 MiB (11%)\nAlignment                        : Aligned on interleaves\nInterleave, duration             : 26 ms (0.65 video frame)\nInterleave, preload duration     : 485 ms\nWriting library                  : LAME3.98r\nEncoding settings                : -m j -V 4 -q 2 -lowpass 15.6 --abr 112\n\n\nNOTE: English subtitles included ;).","torrent":{"xt":"urn:btih:16c78d71e426cfcd37dc8ed330358693c29cbbc0","amp;dn":"Bure.Baruta.aka.Cabaret.Balkan.aka.1998.DVDRip.XviD%5BSRB%5D-NWO","amp;tr":["udp%3A%2F%2Ftracker.openbittorrent.com%3A80","udp%3A%2F%2Fopen.demonii.com%3A1337","udp%3A%2F%2Ftracker.coppersurfer.tk%3A6969","udp%3A%2F%2Fexodus.desync.com%3A6969"],"infoHash":"16c78d71e426cfcd37dc8ed330358693c29cbbc0","infoHashBuffer":{"type":"Buffer","data":[22,199,141,113,228,38,207,205,55,220,142,211,48,53,134,147,194,156,187,192]},"announce":[],"urlList":[]}}